<svg xmlns="http://www.w3.org/2000/svg" viewBox="0 0 32 32">
  <g fill="none" fill-rule="evenodd">
    <path fill="#000" d="M30.644,0 L13.472,0 C6.044,0 0,6.043 0,13.471 L0,30.644 C0,31.393 0.608,32 1.356,32 L18.529,32 C25.957,32 32,25.957 32,18.528 L32,1.356 C32,0.607 31.393,0 30.644,0"/>
    <path fill="#7EBA00" d="M2.7124,28.7998 L2.7124,22.0578 C2.7124,19.4608 4.8174,17.3558 7.4144,17.3558 L14.1554,17.3558 C14.4254,17.3558 14.6444,17.5738 14.6444,17.8438 L14.6444,24.5858 C14.6444,27.1828 12.5394,29.2878 9.9424,29.2878 L3.2014,29.2878 C2.9314,29.2878 2.7124,29.0698 2.7124,28.7998"/>
    <path fill="#B5B900" d="M16.0005,14.6435 L7.4145,14.6435 C6.2345,14.6435 5.1215,14.9245 4.1305,15.4165 C4.0315,15.4665 3.9315,15.3485 3.9975,15.2585 C5.2195,13.5745 7.1985,12.4745 9.4335,12.4745 L19.0375,12.4745 C19.3075,12.4745 19.5255,12.6925 19.5255,12.9625 L19.5255,22.5665 C19.5255,24.8025 18.4255,26.7815 16.7415,28.0035 C16.6505,28.0685 16.5335,27.9695 16.5825,27.8695 C17.0755,26.8785 17.3565,25.7655 17.3565,24.5855 L17.3565,15.9995 C17.3565,15.2505 16.7495,14.6435 16.0005,14.6435"/>
    <path fill="#EB962A" d="M24.4072,20.5474 C24.4072,23.2744 23.1482,25.7084 21.1842,27.3114 C21.0932,27.3864 20.9662,27.2784 21.0242,27.1754 C21.7942,25.8114 22.2382,24.2414 22.2382,22.5674 L22.2382,11.1184 C22.2382,10.3694 21.6302,9.7624 20.8822,9.7624 L9.4332,9.7624 C7.7592,9.7624 6.1902,10.2054 4.8262,10.9744 C4.7232,11.0324 4.6152,10.9064 4.6902,10.8144 C6.2932,8.8524 8.7262,7.5934 11.4522,7.5934 L23.9192,7.5934 C24.1882,7.5934 24.4072,7.8124 24.4072,8.0814 L24.4072,20.5474 Z"/>
    <path fill="#EC4D3B" d="M29.2881,18.5278 C29.2881,21.7368 27.8701,24.6158 25.6331,26.5878 C25.5421,26.6688 25.4081,26.5568 25.4711,26.4528 C26.5151,24.7268 27.1191,22.7078 27.1191,20.5478 L27.1191,6.2368 C27.1191,5.4878 26.5121,4.8818 25.7631,4.8818 L11.4531,4.8818 C9.2921,4.8818 7.2721,5.4858 5.5471,6.5298 C5.4421,6.5928 5.3311,6.4588 5.4121,6.3668 C7.3841,4.1308 10.2621,2.7118 13.4721,2.7118 L28.8001,2.7118 C29.0691,2.7118 29.2881,2.9308 29.2881,3.1998 L29.2881,18.5278 Z"/>
  </g>
</svg>
