<svg xmlns="http://www.w3.org/2000/svg" viewBox="0 0 32 32">
  <path fill="#A0A5AA" fill-rule="evenodd" d="M30.644,0 C31.393,0 32,0.607 32,1.356 L32,1.356 L32,18.528 C32,25.957 25.957,32 18.529,32 L18.529,32 L1.356,32 C0.608,32 -1.42108547e-14,31.393 -1.42108547e-14,30.644 L-1.42108547e-14,30.644 L-1.42108547e-14,13.471 C-1.42108547e-14,6.043 6.044,0 13.472,0 L13.472,0 Z M14.1554,17.3558 L7.4144,17.3558 C4.8174,17.3558 2.7124,19.4608 2.7124,22.0578 L2.7124,22.0578 L2.7124,28.7998 C2.7124,29.0698 2.9314,29.2878 3.2014,29.2878 L3.2014,29.2878 L9.9424,29.2878 C12.5394,29.2878 14.6444,27.1828 14.6444,24.5858 L14.6444,24.5858 L14.6444,17.8438 C14.6444,17.5738 14.4254,17.3558 14.1554,17.3558 L14.1554,17.3558 Z M19.0375,12.4745 L9.4335,12.4745 C7.1985,12.4745 5.2195,13.5745 3.9975,15.2585 C3.9315,15.3485 4.0315,15.4665 4.1305,15.4165 C5.1215,14.9245 6.2345,14.6435 7.4145,14.6435 L7.4145,14.6435 L16.0005,14.6435 C16.7495,14.6435 17.3565,15.2505 17.3565,15.9995 L17.3565,15.9995 L17.3565,24.5855 C17.3565,25.7655 17.0755,26.8785 16.5825,27.8695 C16.5335,27.9695 16.6505,28.0685 16.7415,28.0035 C18.4255,26.7815 19.5255,24.8025 19.5255,22.5665 L19.5255,22.5665 L19.5255,12.9625 C19.5255,12.6925 19.3075,12.4745 19.0375,12.4745 L19.0375,12.4745 Z M23.9192,7.5934 L11.4522,7.5934 C8.7262,7.5934 6.2932,8.8524 4.6902,10.8144 C4.6152,10.9064 4.7232,11.0324 4.8262,10.9744 C6.1902,10.2054 7.7592,9.7624 9.4332,9.7624 L9.4332,9.7624 L20.8822,9.7624 C21.6302,9.7624 22.2382,10.3694 22.2382,11.1184 L22.2382,11.1184 L22.2382,22.5674 C22.2382,24.2414 21.7942,25.8114 21.0242,27.1754 C20.9662,27.2784 21.0932,27.3864 21.1842,27.3114 C23.1482,25.7084 24.4072,23.2744 24.4072,20.5474 L24.4072,20.5474 L24.4072,8.0814 C24.4072,7.8124 24.1882,7.5934 23.9192,7.5934 L23.9192,7.5934 Z M28.8001,2.7118 L13.4721,2.7118 C10.2621,2.7118 7.3841,4.1308 5.4121,6.3668 C5.3311,6.4588 5.4421,6.5928 5.5471,6.5298 C7.2721,5.4858 9.2921,4.8818 11.4531,4.8818 L11.4531,4.8818 L25.7631,4.8818 C26.5121,4.8818 27.1191,5.4878 27.1191,6.2368 L27.1191,6.2368 L27.1191,20.5478 C27.1191,22.7078 26.5151,24.7268 25.4711,26.4528 C25.4081,26.5568 25.5421,26.6688 25.6331,26.5878 C27.8701,24.6158 29.2881,21.7368 29.2881,18.5278 L29.2881,18.5278 L29.2881,3.1998 C29.2881,2.9308 29.0691,2.7118 28.8001,2.7118 L28.8001,2.7118 Z"/>
</svg>
