<svg width="22" height="22" viewBox="0 0 22 22" fill="none" xmlns="http://www.w3.org/2000/svg">
<circle cx="11" cy="11" r="11" fill="white"/>
<path fill-rule="evenodd" clip-rule="evenodd" d="M8.06689 6.30667C7.41887 6.30667 6.89355 6.83199 6.89355 7.48001V14.52C6.89355 15.168 7.41887 15.6933 8.06689 15.6933C8.7149 15.6933 9.24022 15.168 9.24022 14.52V7.48C9.24022 6.83199 8.7149 6.30667 8.06689 6.30667ZM13.9331 6.30667C13.2851 6.30667 12.7598 6.83199 12.7598 7.48001V14.52C12.7598 15.168 13.2851 15.6933 13.9331 15.6933C14.5811 15.6933 15.1064 15.168 15.1064 14.52V7.48C15.1064 6.83199 14.5811 6.30667 13.9331 6.30667Z" fill="#82BC46"/>
</svg>
