<svg xmlns="http://www.w3.org/2000/svg" viewBox="0 0 24 24"><path fill-rule="evenodd" d="M10.883 4.007L11 4h8l.075.003.126.017.111.03.111.044.098.052.096.067.09.08c.036.035.068.073.097.112l.071.11.054.114.035.105.03.15L20 5v8a1 1 0 01-1.993.117L18 13V7.414L7.414 18H13a1 1 0 01.117 1.993L13 20l-8.06-.002-.139-.018-.113-.03-.111-.044-.098-.052-.092-.064-.094-.083a1.005 1.005 0 01-.097-.112l-.071-.11-.054-.114-.035-.105-.03-.15L4 19v-8a1 1 0 011.993-.117L6 11v5.584L16.584 6H11a1 1 0 01-.117-1.993z"/></svg>