<svg xmlns="http://www.w3.org/2000/svg" viewBox="0 0 24 24"><path fill-rule="evenodd" d="M12 1c6.075 0 11 4.925 11 11s-4.925 11-11 11S1 18.075 1 12 5.925 1 12 1zm0 2a9 9 0 100 18 9 9 0 000-18zm-.293 4.293a1 1 0 01.083 1.32l-.083.094L9.414 11H17a1 1 0 01.117 1.993L17 13H9.415l2.292 2.293a1 1 0 01-1.32 1.497l-.094-.083-4-4-.054-.058-.071-.094-.043-.07-.054-.114-.035-.105-.025-.118-.007-.058L6 12l.003-.075.017-.126.03-.111.044-.111.052-.098.064-.092c.029-.037.055-.066.083-.094l4-4a1 1 0 011.414 0z"/></svg>