<svg xmlns="http://www.w3.org/2000/svg" viewBox="0 0 24 24"><path fill-rule="evenodd" d="M20 1a3 3 0 013 3v16a3 3 0 01-3 3H4a3 3 0 01-3-3V4a3 3 0 013-3zm0 2H4a1 1 0 00-1 1v16a1 1 0 001 1h16a1 1 0 001-1V4a1 1 0 00-1-1zm-8 3a1 1 0 01.993.883L13 7v7.585l2.293-2.292a1 1 0 011.497 1.32l-.083.094-4 4-.058.054-.094.071-.07.043-.114.054-.105.035-.118.025-.058.007L12 18l-.075-.003-.126-.017-.111-.03-.111-.044-.098-.052-.092-.064a1.048 1.048 0 01-.094-.083l-4-4a1 1 0 011.32-1.497l.094.083L11 14.586V7a1 1 0 011-1z"/></svg>