<svg xmlns="http://www.w3.org/2000/svg" viewBox="0 0 24 24"><path fill-rule="evenodd" d="M20 1a3 3 0 013 3v16a3 3 0 01-3 3H4a3 3 0 01-3-3V4a3 3 0 013-3zm0 2H4a1 1 0 00-1 1v16a1 1 0 001 1h16a1 1 0 001-1V4a1 1 0 00-1-1zm-6.387 4.21l.094.083 4 4 .054.058.071.094.043.07.054.114.035.105.025.118.007.058L18 12l-.003.075-.017.126-.03.111-.044.111-.052.098-.064.092c-.029.037-.055.066-.083.094l-4 4a1 1 0 01-1.497-1.32l.083-.094L14.586 13H7a1 1 0 01-.117-1.993L7 11h7.585l-2.292-2.293a1 1 0 011.32-1.497z"/></svg>