<svg xmlns="http://www.w3.org/2000/svg" viewBox="0 0 24 24"><path fill-rule="evenodd" d="M12 1c6.075 0 11 4.925 11 11s-4.925 11-11 11S1 18.075 1 12 5.925 1 12 1zm0 2a9 9 0 100 18 9 9 0 000-18zm0 3a1 1 0 01.993.883L13 7l-.001 7.586 2.294-2.293a1 1 0 011.497 1.32l-.083.094-4 4-.058.054-.094.071-.07.043-.114.054-.105.035-.118.025-.058.007L12 18l-.075-.003-.126-.017-.111-.03-.111-.044-.098-.052-.092-.064a1.048 1.048 0 01-.094-.083l-4-4a1 1 0 011.32-1.497l.094.083L11 14.585 11 7a1 1 0 011-1z"/></svg>