<svg xmlns="http://www.w3.org/2000/svg" viewBox="0 0 24 24"><path fill-rule="evenodd" d="M12.19 5.734c3.243-1.818 5.947-2.41 8.126-1.683A1 1 0 0121 5v12l-.006.113a1 1 0 01-1.236.857c-2.357-.59-4.72.002-7.158 1.83l-.033.024a1.001 1.001 0 01-.072.045l-.03.017a.996.996 0 01-.08.037l-.03.012a.992.992 0 01-.03.011l-.023.007a.597.597 0 01-.031.01l-.03.008a.994.994 0 01-.03.007l-.023.004a.613.613 0 01-.034.006l-.018.003a1.002 1.002 0 01-.113.009H12l-.023-.001h-.04l-.02-.002-.011-.003h-.023a1 1 0 01-.07-.012l-.012-.002-.013-.002a.994.994 0 01-.09-.024l-.012-.004-.01-.004a.992.992 0 01-.084-.033l-.016-.007a.959.959 0 01-.176-.106c-2.438-1.828-4.8-2.42-7.157-1.83a1 1 0 01-1.237-.857L3 17V5a1 1 0 01.684-.949c2.221-.74 4.988-.112 8.316 1.79zm-7.115.048L5 5.792v10.013l.296-.028c1.915-.15 3.823.313 5.704 1.373V7.573C8.56 6.18 6.581 5.603 5.074 5.782zm13.85 0c-1.506-.18-3.485.398-5.924 1.79v9.578c1.88-1.06 3.788-1.523 5.703-1.373l.296.028V5.792z"/></svg>