<svg xmlns="http://www.w3.org/2000/svg" viewBox="0 0 24 24"><path fill-rule="evenodd" d="M18.5 3A3.5 3.5 0 0122 6.5v8a3.5 3.5 0 01-3.5 3.5h-7.125l-3.703 3.241a1.01 1.01 0 01-1.666-.652L6 20.478V18h-.5a3.5 3.5 0 01-3.495-3.308L2 14.5v-8A3.5 3.5 0 015.5 3zm0 2h-13A1.5 1.5 0 004 6.5v8A1.5 1.5 0 005.5 16H7a1 1 0 011 1v1.295l2.341-2.048a1 1 0 01.539-.24L11 16h7.5a1.5 1.5 0 001.5-1.5v-8A1.5 1.5 0 0018.5 5zm-4.875 2a2.876 2.876 0 012.868 2.666l.007.209-.015.297c-.136 1.412-.938 2.52-2.147 3.399a8.06 8.06 0 01-2.01 1.075 1 1 0 01-.653.001 8.088 8.088 0 01-2.009-1.063c-1.26-.905-2.077-2.055-2.16-3.471L7.5 9.851l.01-.204C7.65 8.135 8.887 7 10.374 7l.193.006c.513.035.997.205 1.41.482l.022.015.023-.015A2.87 2.87 0 0113.625 7zm0 2a.873.873 0 00-.694.343l-.065.096a1 1 0 01-1.659.111l-.073-.11a.874.874 0 00-1.63.352l-.004.083c0 .77.476 1.469 1.334 2.085.328.236.686.44 1.043.607l.122.055.12-.056c.357-.17.715-.375 1.043-.613.79-.574 1.26-1.225 1.33-1.933l.008-.169A.873.873 0 0013.625 9z"/></svg>