<svg xmlns="http://www.w3.org/2000/svg" viewBox="0 0 24 24"><path fill-rule="evenodd" d="M12 2c5.496 0 10 4.03 10 9.053 0 5.022-4.504 9.052-10 9.052l-.42-.008a10.91 10.91 0 01-2.837-.483l-.406-.137-4.1 1.465-.105.031a1 1 0 01-1.213-1.17l.751-3.743-.127-.175A8.4 8.4 0 012 11.053C2 6.03 6.504 2 12 2zm0 2c-4.438 0-8 3.187-8 7.053 0 1.498.533 2.928 1.513 4.123l.074.103a1 1 0 01.133.727l-.492 2.457 2.78-.992a1 1 0 01.707.013 8.876 8.876 0 003.285.621c4.438 0 8-3.187 8-7.052C20 7.187 16.438 4 12 4zm1.625 3a2.876 2.876 0 012.868 2.666l.007.209-.015.297c-.136 1.412-.938 2.52-2.147 3.399a8.06 8.06 0 01-2.01 1.075 1 1 0 01-.653.001 8.088 8.088 0 01-2.009-1.063c-1.26-.905-2.077-2.055-2.16-3.471L7.5 9.851l.01-.204C7.65 8.135 8.887 7 10.374 7l.193.006c.513.035.997.205 1.41.482l.022.015.023-.015A2.87 2.87 0 0113.625 7zm0 2a.873.873 0 00-.694.343l-.065.096a1 1 0 01-1.659.111l-.073-.11a.874.874 0 00-1.63.352l-.004.083c0 .77.476 1.469 1.334 2.085.328.236.686.44 1.043.607l.122.055.12-.056c.357-.17.715-.375 1.043-.613.79-.574 1.26-1.225 1.33-1.933l.008-.169A.873.873 0 0013.625 9z"/></svg>