<svg xmlns="http://www.w3.org/2000/svg" viewBox="0 0 24 24"><path fill-rule="evenodd" d="M12 2c5.496 0 10 4.03 10 9.053 0 5.022-4.504 9.052-10 9.052l-.42-.008a10.91 10.91 0 01-2.837-.483l-.406-.137-4.1 1.465-.105.031a1 1 0 01-1.213-1.17l.751-3.743-.127-.175A8.4 8.4 0 012 11.053C2 6.03 6.504 2 12 2zm0 2c-4.438 0-8 3.187-8 7.053 0 1.498.533 2.928 1.513 4.123l.074.103a1 1 0 01.133.727l-.492 2.457 2.78-.992a1 1 0 01.707.013 8.876 8.876 0 003.285.621c4.438 0 8-3.187 8-7.052C20 7.187 16.438 4 12 4zm1 7a1 1 0 01.117 1.993L13 13H8a1 1 0 01-.117-1.993L8 11h5zm3-3a1 1 0 01.117 1.993L16 10H8a1 1 0 01-.117-1.993L8 8h8z"/></svg>