<svg xmlns="http://www.w3.org/2000/svg" viewBox="0 0 24 24"><path fill-rule="evenodd" d="M12 0a4.002 4.002 0 013.874 3H17a3 3 0 013 3v13a3 3 0 01-3 3H7a3 3 0 01-3-3V6a3 3 0 013-3h1.126C8.57 1.275 10.136 0 12 0zm5 5H7a1 1 0 00-1 1v13a1 1 0 001 1h10a1 1 0 001-1V6a1 1 0 00-1-1zm-5 9a1 1 0 01.117 1.993L12 16H9a1 1 0 01-.117-1.993L9 14h3zm3-3a1 1 0 01.117 1.993L15 13H9a1 1 0 01-.117-1.993L9 11h6zm0-3a1 1 0 01.117 1.993L15 10H9a1 1 0 01-.117-1.993L9 8h6zm-3-6a2 2 0 00-1.733 1h3.465A2 2 0 0012 2z"/></svg>