<svg xmlns="http://www.w3.org/2000/svg" viewBox="0 0 24 24"><path fill-rule="evenodd" d="M12 1c6.075 0 11 4.925 11 11s-4.925 11-11 11c-3.91 0-7.456-2.06-9.424-5.324l-.596 2.077a1 1 0 01-1.114.713l-.123-.027a1 1 0 01-.712-1.114l.027-.123 1.364-4.758a1 1 0 011.114-.713l.123.027 4.758 1.365a1 1 0 01-.429 1.95l-.122-.028-2.806-.805.098.18A9 9 0 1012 3c-2.397 0-4.643.94-6.316 2.588A1 1 0 014.28 4.164 10.966 10.966 0 0112 1zm-.844 11.536a.647.647 0 01-.059-.105 1.075 1.075 0 01-.084-.273.797.797 0 01-.006-.041l-.001-.011a1.006 1.006 0 01-.006-.08V7a1 1 0 011.993-.117L13 7v4.5l3.6 2.7a1 1 0 01-1.095 1.669L15.4 15.8l-4-3-.012-.01a1.005 1.005 0 01-.062-.051l-.022-.02-.011-.012a1.005 1.005 0 01-.137-.17z"/></svg>