<svg xmlns="http://www.w3.org/2000/svg" viewBox="0 0 24 24"><path fill-rule="evenodd" d="M17 2a3 3 0 013 3v14a3 3 0 01-3 3H7a3 3 0 01-3-3H3a1 1 0 01-.117-1.993L3 17h1v-2H3a1 1 0 01-.117-1.993L3 13h1v-2H3a1 1 0 01-.117-1.993L3 9h1V7H3a1 1 0 01-.117-1.993L3 5h1a3 3 0 013-3zm0 2H7a1 1 0 00-1 1 1 1 0 01.117 1.993L6 7v2a1 1 0 01.117 1.993L6 11v2a1 1 0 01.117 1.993L6 15v2a1 1 0 01.117 1.993L6 19a1 1 0 001 1h10a1 1 0 001-1V5a1 1 0 00-1-1zm-5.007 9c1.704 0 3.265.91 4.327 2.427a1 1 0 11-1.64 1.146C13.975 15.565 13.006 15 11.993 15c-1.008 0-1.972.558-2.676 1.556a1 1 0 01-1.634-1.154C8.744 13.9 10.297 13 11.993 13zM12 6a3 3 0 110 6 3 3 0 010-6zm0 2a1 1 0 100 2 1 1 0 000-2z"/></svg>