<svg xmlns="http://www.w3.org/2000/svg" viewBox="0 0 24 24"><path fill-rule="evenodd" d="M14 1a2 2 0 011.995 1.85L16 3v3.877a6.51 6.51 0 012.193 3.142c.423.082.75.431.8.864L19 11v2a1 1 0 01-.807.981A6.514 6.514 0 0116 17.123L16 21a2 2 0 01-1.85 1.995L14 23h-4a2 2 0 01-1.995-1.85L8 21v-3.876A6.489 6.489 0 015.5 12c0-2.081.978-3.934 2.5-5.124V3a2 2 0 011.85-1.995L10 1h4zm0 17.186a6.495 6.495 0 01-2 .314c-.698 0-1.37-.11-2-.313V21h4zM12 7.5a4.5 4.5 0 100 9 4.5 4.5 0 000-9zM10 3v2.813a6.495 6.495 0 012-.313c.698 0 1.37.11 2 .314V3h-4z"/></svg>