<svg xmlns="http://www.w3.org/2000/svg" viewBox="0 0 24 24"><path fill-rule="evenodd" d="M14 2a1.01 1.01 0 01.25.031l.03.009c.03.009.061.02.091.031l.027.012a.914.914 0 01.195.112c.04.03.078.062.114.098l-.093-.082.011.009.082.073 5 5a1.006 1.006 0 01.21.309l.012.027c.012.03.022.06.031.091l.008.03A.921.921 0 0120 8l-.008-.126.001.01L20 8v11a3 3 0 01-3 3H7a3 3 0 01-3-3V5a3 3 0 013-3h7zm-1 2H7a1 1 0 00-1 1v14a1 1 0 001 1h10a1 1 0 001-1V9h-4a1 1 0 01-.993-.883L13 8V4zm3.585 3L15 5.415V7h1.585z"/></svg>