<svg xmlns="http://www.w3.org/2000/svg" viewBox="0 0 24 24"><path fill-rule="evenodd" d="M14 2a1 1 0 01.117 1.993L14 4H7a1 1 0 00-.993.883L6 5v14a1 1 0 00.883.993L7 20h10a1 1 0 00.993-.883L18 19V8a1 1 0 011.993-.117L20 8v11a3 3 0 01-2.824 2.995L17 22H7a3 3 0 01-2.995-2.824L4 19V5a3 3 0 012.824-2.995L7 2h7zm1 8a1 1 0 01.117 1.993L15 12H9a1 1 0 01-.117-1.993L9 10h6zm-3-3a1 1 0 01.117 1.993L12 9H9a1 1 0 01-.117-1.993L9 7h3zm9.343-6a1 1 0 01.083 1.32l-.083.094-5.636 5.636a1 1 0 01-1.497-1.32l.083-.094L19.929 1a1 1 0 011.414 0z"/></svg>