<svg xmlns="http://www.w3.org/2000/svg" viewBox="0 0 24 24"><path fill-rule="evenodd" d="M22.5 18c0 1.661-1.342 3-3 3h-15c-1.66 0-3-1.339-3-3v-5a1.018 1.018 0 01.035-.266l.008-.025.005-.018a.993.993 0 01.03-.08l.006-.012 3.5-8a1 1 0 011.873.692l-.04.11L4.028 12h3.97a1 1 0 01.832.444l.063.108L10.119 15h3.76l1.226-2.448a1 1 0 01.77-.544L16 12h3.97l-2.886-6.6a1 1 0 011.78-.905l.052.104 3.5 8 .014.034.017.045-.03-.079c.021.051.039.103.052.155l.007.03A.848.848 0 0122.5 13l-.004-.102a.993.993 0 01.005.094zM7.381 14H3.499v4c0 .516.384.936.883.993L4.5 19h15c.554 0 1-.444 1-1l-.001-4h-3.883l-1.084 2.167a1.504 1.504 0 01-1.2.826L14.19 17H9.809c-.57 0-1.088-.326-1.342-.832L7.382 14zM12 1a1 1 0 01.993.883L13 2v4.585l1.293-1.292.094-.083a1 1 0 011.32 1.497l-3 3a1.006 1.006 0 01-.085.076l-.01.007A.999.999 0 0112 10h-.033l-.052-.004L12 10a1.008 1.008 0 01-.582-.187.996.996 0 01-.125-.106l.085.076a1.006 1.006 0 01-.085-.076l-3-3-.083-.094a1 1 0 01.083-1.32l.094-.083a1 1 0 011.32.083L11 6.585V2a1 1 0 011-1z"/></svg>