<svg xmlns="http://www.w3.org/2000/svg" viewBox="0 0 24 24"><path fill-rule="evenodd" d="M21.719 5a1.996 1.996 0 011.69.932l.005.006.02.032c.272.453.355.998.225 1.515l-2.5 10a2 2 0 01-1.78 1.509l-.16.006H8a1 1 0 01-.117-1.993L8 17h11.219l2.143-8.572-5.586 3.557a3 3 0 01-3.543-.237L7.575 7.824 7.22 9.242a1 1 0 01-1.94-.484l.56-2.241a2 2 0 011.78-1.51L7.781 5h13.938zM8 13.991a1 1 0 01.117 1.993L8 15.991H2a1 1 0 01-.117-1.993L2 13.99h6zM6.5 11a1 1 0 01.117 1.993L6.5 13H4a1 1 0 01-.117-1.993L4 11h2.5zm13.382-4H9.7l3.821 3.218a1 1 0 001.181.08L19.882 7z"/></svg>