<svg xmlns="http://www.w3.org/2000/svg" viewBox="0 0 24 24"><path fill-rule="evenodd" d="M20 4c.8 0 1.527.313 2.064.823.036.03.071.064.104.1l.02.024A2.99 2.99 0 0123 7v10a2.99 2.99 0 01-.826 2.067.75.75 0 01-.05.056l-.057.051A2.99 2.99 0 0120 20H4a2.988 2.988 0 01-1.902-.68.919.919 0 01-.13-.106l-.051-.055A2.991 2.991 0 011 17V7c0-.787.303-1.503.799-2.038a1.007 1.007 0 01.16-.162A2.996 2.996 0 014 4zm-5.396 9.018l-1.275 1.139a2 2 0 01-2.522.11l-.138-.112-1.264-1.131L4.548 18h15.037l-4.981-4.982zM3 7.297v9.426l4.913-5.033L3 7.297zm18 .009l-4.902 4.378L21 16.585V7.306zM19.459 6H4.55l5.413 4.84c.033.025.066.053.097.083l.015.018 1.924 1.721 1.893-1.692a1.016 1.016 0 01.167-.15l5.4-4.82z"/></svg>