<svg xmlns="http://www.w3.org/2000/svg" viewBox="0 0 24 24"><path fill-rule="evenodd" d="M11.331.257a1 1 0 011.338 0l10 9A1 1 0 0123 10v11a2.99 2.99 0 01-.826 2.067.75.75 0 01-.05.056l-.057.051A2.99 2.99 0 0120 24H4a2.988 2.988 0 01-1.902-.68.919.919 0 01-.13-.106l-.051-.055A2.991 2.991 0 011 21V10a1 1 0 01.331-.743zm3.273 16.761l-1.275 1.139a2 2 0 01-2.522.11l-.138-.112-1.264-1.131L4.548 22h15.037l-4.981-4.982zM3 11.297v9.426l4.913-5.033L3 11.297zm18 .009l-4.902 4.378L21 20.585v-9.279zM17.22 12H6.786l3.174 2.837c.034.026.068.055.1.086l.019.022 1.92 1.717 1.889-1.688a1.016 1.016 0 01.175-.156L17.22 12zM12 2.345L4.02 9.526l.61.545a.994.994 0 01.253-.064L5 10h14c.133 0 .26.026.377.074l.608-.543L12 2.345z"/></svg>