<svg xmlns="http://www.w3.org/2000/svg" viewBox="0 0 24 24"><path fill-rule="evenodd" d="M22.5 18c0 1.661-1.342 3-3 3h-15c-1.66 0-3-1.339-3-3v-5a1.018 1.018 0 01.035-.266l.008-.025.005-.018a.993.993 0 01.03-.08l.006-.012 3.5-8a1 1 0 01.785-.59L6 4h12a1 1 0 01.857.483l.06.116 3.5 8 .014.034.017.045-.03-.079c.021.051.039.103.052.155l.007.03A.85.85 0 0122.5 13l-.004-.102a.993.993 0 01.005.094zM7.381 14H3.499v4c0 .516.384.936.883.993L4.5 19h15c.554 0 1-.444 1-1l-.001-4h-3.883l-1.084 2.167a1.504 1.504 0 01-1.2.826L14.19 17H9.809c-.57 0-1.088-.326-1.342-.832L7.382 14zm9.963-8.001H6.654L4.029 12h3.97a1 1 0 01.832.444l.063.108L10.119 15h3.76l1.226-2.448a1 1 0 01.77-.544L16 12h3.97l-2.625-6.001z"/></svg>