<svg xmlns="http://www.w3.org/2000/svg" viewBox="0 0 24 24"><path fill-rule="evenodd" d="M21 4c.59 0 1.12.255 1.487.662l.008.01c.316.357.506.82.506 1.328v12a2 2 0 01-2 2H3a2 2 0 01-2-2V6c0-.507.19-.971.501-1.324l.004-.004.009-.01A1.995 1.995 0 013 4zM3 7.337V18h18V7.338l-4.523 4.02.014.104.009.204-.007.262c-.082 1.415-.9 2.566-2.16 3.47a8.088 8.088 0 01-2.008 1.064 1 1 0 01-.653-.001 8.06 8.06 0 01-2.01-1.076c-1.209-.878-2.011-1.987-2.147-3.399L7.5 11.69l.007-.208c.003-.042.007-.084.012-.125L3 7.337zm10.625 3.478a.874.874 0 00-.759.44l-.073.11a1 1 0 01-1.66-.11l-.064-.097a.873.873 0 00-.694-.343.88.88 0 00-.816.559.793.793 0 00-.059.292l.009.169c.068.708.54 1.359 1.329 1.932.328.239.686.445 1.043.614l.12.055.122-.054a6.598 6.598 0 001.043-.607c.858-.617 1.334-1.315 1.334-2.086l-.004-.082a.876.876 0 00-.87-.792zM19.494 6H4.507l3.97 3.53a2.863 2.863 0 011.724-.71l.174-.005a2.87 2.87 0 011.602.488l.023.015.023-.015a2.868 2.868 0 011.409-.482l.193-.006c.723 0 1.388.268 1.895.717L19.494 6z"/></svg>