<svg xmlns="http://www.w3.org/2000/svg" viewBox="0 0 24 24"><path fill-rule="evenodd" d="M21.867 3.008a.982.982 0 01.899.348c.048.057.09.12.124.185l-.06-.1a.977.977 0 01.088.96l.023-.06-.018.045-.006.015-7 16a1 1 0 01-1.526.392l-3.197-2.459-3.406 2.475a1 1 0 01-1.581-.695L6.2 20v-5.508l-4.81-3.7a1 1 0 01.21-1.709l.112-.04 20-6a1.086 1.086 0 01.145-.034h.004zM19.7 6.761L8.91 14.052l5.688 4.375 5.102-11.666zm-11.5 9.27l.001 2.005 1.34-.974L8.2 16.03zm7.814-9.193L4.156 10.396l3.082 2.371 8.775-5.929z"/></svg>