<svg xmlns="http://www.w3.org/2000/svg" viewBox="0 0 24 24"><path fill-rule="evenodd" d="M11.704.607l.012.003h.002l.01.002c.497.101.953.389 1.255.833l.08.127 8 13.856c.296.514.338 1.104.166 1.627l-.006.018a1.993 1.993 0 01-.767 1.008l-.126.08-1.455.839H22a1 1 0 01.117 1.993L22 21H2a1 1 0 01-.117-1.993L2 19h4.959L.938 8.572a2 2 0 01.606-2.653l.126-.08L10.33.84c.432-.25.92-.32 1.374-.233zm-1.506 2.619L2.67 7.572 9.268 19h5.608l3.324-1.92-1.564-.54-2.412-.827a384.33 384.33 0 00-2.74-.924 3.998 3.998 0 01-2.657-4.602l.31-1.527.593-3.007.468-2.427zm1.906.686L11.85 5.23l-.753 3.824a314.74 314.74 0 01-.312 1.535 1.998 1.998 0 001.33 2.301l1.484.498 2.147.73 2.812.972-6.454-11.18z"/></svg>