<svg xmlns="http://www.w3.org/2000/svg" viewBox="0 0 24 24"><path fill-rule="evenodd" d="M18.372 3.471l3.37 1.349a2 2 0 011.252 1.695l.007.162V19a2.008 2.008 0 01-.409 1.212l-.041.051a1.378 1.378 0 01-.118.133l-.016.016-.02.02a2.013 2.013 0 01-.079.073l.099-.093a1.99 1.99 0 01-.411.317l-.007.004a1.887 1.887 0 01-.144.076l-.028.012a1.75 1.75 0 01-.127.053l-.034.012a1.7 1.7 0 01-.127.04l-.04.01c-.037.01-.074.02-.112.027l-.055.01a1.739 1.739 0 01-.155.02h-.015l-.012.002L21 21H3c-.057 0-.114-.002-.171-.007L3 21a2.002 2.002 0 01-.338-.028l-.036-.007a1.818 1.818 0 01-.135-.03l-.026-.008a1.76 1.76 0 01-.125-.038l-.052-.02a1.726 1.726 0 01-.294-.14 2.096 2.096 0 01-.406-.313l-.027-.026a2.013 2.013 0 01-.07-.078l.097.104a1.991 1.991 0 01-.514-.873l-.012-.049a1.714 1.714 0 01-.055-.318l-.001-.02v-.007L1 18.999V6.678A2 2 0 012.258 4.82l3.371-1.349a1 1 0 11.743 1.857l-3.371 1.35v.813l6.29 4.58.052-.046a3.998 3.998 0 015.15-.14l.165.14.052.046L21 7.49v-.814l-3.37-1.349a1 1 0 11.742-1.857zM13.33 13.52a1.998 1.998 0 00-2.657 0L4.505 19h14.99zM3.001 9.965L3 12.915v4.746l4.76-4.231L3 9.965zm17.999 0l-4.76 3.465L21 17.66V9.966zm-7.375-8.15c1.487 0 2.726 1.135 2.866 2.647l.009.204-.007.262c-.082 1.415-.9 2.566-2.16 3.47a8.088 8.088 0 01-2.008 1.064 1 1 0 01-.653-.001 8.06 8.06 0 01-2.01-1.076c-1.209-.878-2.011-1.987-2.147-3.399L7.5 4.69l.007-.208a2.876 2.876 0 014.47-2.178l.023.015.023-.015a2.868 2.868 0 011.409-.482zm0 2a.874.874 0 00-.759.44l-.073.11a1 1 0 01-1.66-.11l-.064-.097a.873.873 0 00-1.57.509h.001l.009.168c.068.708.54 1.359 1.329 1.932.328.239.686.445 1.043.614l.12.055.122-.054a6.598 6.598 0 001.043-.607c.858-.617 1.334-1.315 1.334-2.086l-.004-.082a.876.876 0 00-.87-.792z"/></svg>