<svg xmlns="http://www.w3.org/2000/svg" viewBox="0 0 24 24"><path fill-rule="evenodd" d="M12 1a2.98 2.98 0 012.807 1.98l.375 1.054a.146.146 0 00.199.084l1.012-.481a2.98 2.98 0 013.97 3.97l-.457.957-.031.071a.145.145 0 00.088.183l1.056.374a2.98 2.98 0 010 5.613l-1.055.376a.145.145 0 00-.082.2l.48 1.011a2.98 2.98 0 01-3.97 3.97l-1.011-.48a.145.145 0 00-.2.081l-.374 1.056a2.98 2.98 0 01-5.615 0l-.375-1.056a.144.144 0 00-.2-.081l-1.01.48a2.98 2.98 0 01-3.97-3.97l.48-1.012a.145.145 0 00-.081-.199l-1.056-.375a2.98 2.98 0 010-5.613l1.055-.375a.146.146 0 00.082-.2l-.48-1.012a2.98 2.98 0 013.97-3.969l1.01.48a.146.146 0 00.2-.082l.376-1.056A2.98 2.98 0 0112 1zm0 2a.98.98 0 00-.923.65l-.375 1.055a2.146 2.146 0 01-2.943 1.219l-1.01-.48a.98.98 0 00-1.305 1.305l.48 1.01a2.146 2.146 0 01-1.219 2.943l-1.054.375a.98.98 0 000 1.845l1.055.375a2.145 2.145 0 011.218 2.942l-.48 1.01a.98.98 0 001.305 1.306l1.01-.48a2.144 2.144 0 012.943 1.219l.375 1.053a.98.98 0 001.845.001l.375-1.055a2.145 2.145 0 012.942-1.218l1.01.48a.98.98 0 001.306-1.305l-.48-1.01a2.145 2.145 0 011.218-2.943l1.055-.376a.98.98 0 00.001-1.844l-1.055-.375a2.145 2.145 0 01-1.264-1.201c-.198-.48-.216-1.013-.03-1.56l.075-.182.48-1.01a.98.98 0 00-1.304-1.306l-1.012.481a2.146 2.146 0 01-2.942-1.22l-.374-1.053A.98.98 0 0012 3zm-1.906 4.37a5.057 5.057 0 016.525 2.7l.085.221a5.012 5.012 0 01-2.79 6.333 4.817 4.817 0 01-1.929.362 5.116 5.116 0 01-4.61-3.072 5.014 5.014 0 012.72-6.544zm4.61 3.323a3.053 3.053 0 00-3.854-1.471c-1.533.637-2.26 2.395-1.636 3.908a3.11 3.11 0 002.806 1.856 2.82 2.82 0 001.129-.21 3.01 3.01 0 001.626-3.93z"/></svg>