<svg xmlns="http://www.w3.org/2000/svg" viewBox="0 0 24 24"><path fill-rule="evenodd" d="M12 1c6.075 0 11 4.925 11 11s-4.925 11-11 11S1 18.075 1 12c0-2.468.813-4.746 2.186-6.582a1 1 0 01.198-.258A10.984 10.984 0 0112 1zM6.594 17.98l-.214.085c-.244.101-.484.209-.72.323A9.006 9.006 0 008.2 20.16a12.021 12.021 0 01-1.606-2.18zm10.825-.026l-.113.196c-.43.72-.935 1.395-1.507 2.011a9.025 9.025 0 002.565-1.797l-.111-.053c-.273-.128-.55-.247-.834-.357zm-8.53-.661l-.329.073A10.013 10.013 0 0011 20.002v-3c-.718.048-1.424.146-2.111.29zM13 16.997v3.004a10.014 10.014 0 002.45-2.65 15.142 15.142 0 00-2.45-.354zm-7.96-3.996H3.055a8.945 8.945 0 001.327 3.793c.441-.232.896-.441 1.363-.63a11.933 11.933 0 01-.704-3.163zm15.904 0h-1.986a11.97 11.97 0 01-.694 3.14c.47.184.928.393 1.372.622A8.932 8.932 0 0020.945 13zM11 13H7.05c.087.88.29 1.73.594 2.535A16.902 16.902 0 0111 14.998V13zm5.95 0H13v1.994c1.154.063 2.281.24 3.364.522.3-.8.5-1.643.586-2.515zM4.378 7.215l-.107.172A8.943 8.943 0 003.055 11H5.04c.091-1.095.33-2.156.7-3.159a15.313 15.313 0 01-1.363-.627zm3.263 1.258l-.094.26A9.976 9.976 0 007.05 11H11V9.007a17.023 17.023 0 01-3.36-.535zm8.724.015l-.345.087c-.976.232-1.987.38-3.019.437L13 11h3.95a9.974 9.974 0 00-.585-2.513zm3.273-1.25l-.362.183c-.33.16-.667.307-1.01.444.366.995.602 2.049.693 3.136h1.986a8.944 8.944 0 00-1.307-3.762zM13.001 4v3.008a15.093 15.093 0 002.45-.354 9.987 9.987 0 00-2.45-2.654zM8.577 6.607l-.02.033c.79.185 1.608.308 2.443.363V3.998a10.013 10.013 0 00-2.423 2.61zm7.22-2.769l.12.13a12.007 12.007 0 011.504 2.078c.321-.123.636-.26.944-.408a9.007 9.007 0 00-2.567-1.8zM8.2 3.84l-.158.075a9.024 9.024 0 00-2.387 1.702c.305.148.617.285.935.41A12 12 0 018.2 3.84z"/></svg>