<svg xmlns="http://www.w3.org/2000/svg" viewBox="0 0 24 24"><path fill-rule="evenodd" d="M15.346 3.006a5.054 5.054 0 00-3.414 1.51l-.164.169-.106-.113A5.097 5.097 0 007.936 3C4.55 3 2 5.725 2 9.362c0 4 3.091 7.94 8.522 11.427.41.257.835.428 1.245.428.413 0 .867-.181 1.251-.432 5.43-3.486 8.525-7.424 8.525-11.423C21.543 5.726 18.984 3 15.6 3l-.253.006zM15.599 5c2.251 0 3.944 1.804 3.944 4.362 0 3.162-2.69 6.584-7.611 9.744l-.165.094-.175-.1C6.686 15.949 4 12.527 4 9.362 4 6.801 5.686 5 7.936 5c1.27 0 2.301.67 2.95 1.877a1 1 0 001.758.006C13.314 5.661 14.328 5 15.6 5z"/></svg>