<svg xmlns="http://www.w3.org/2000/svg" viewBox="0 0 24 24"><path fill-rule="evenodd" d="M12 2c5.523 0 10 4.477 10 10a9.965 9.965 0 01-2.695 6.829.98.98 0 01-.476.477A9.968 9.968 0 0112 22a9.965 9.965 0 01-6.829-2.695.98.98 0 01-.477-.476A9.968 9.968 0 012 12C2 6.477 6.477 2 12 2zm2.757 14.172A4.977 4.977 0 0112 17a4.977 4.977 0 01-2.757-.828L7.094 18.32A7.965 7.965 0 0012 20c1.849 0 3.55-.627 4.906-1.68zM5.68 7.094A7.965 7.965 0 004 12c0 1.849.627 3.55 1.68 4.906l2.148-2.149A4.977 4.977 0 017 12c0-1.02.305-1.967.828-2.757zm12.64 0l-2.148 2.149c.523.79.828 1.738.828 2.757 0 1.02-.305 1.967-.828 2.757l2.148 2.149A7.965 7.965 0 0020 12c0-1.849-.627-3.55-1.68-4.906zM12 9a3 3 0 100 6 3 3 0 000-6zm0-5c-1.849 0-3.55.627-4.906 1.68l2.149 2.148A4.977 4.977 0 0112 7c1.02 0 1.967.305 2.757.828l2.149-2.148A7.965 7.965 0 0012 4z"/></svg>