<svg xmlns="http://www.w3.org/2000/svg" viewBox="0 0 24 24"><path fill-rule="evenodd" d="M13.732 9.238l.095.083.97.97a4 4 0 01.15 5.497l-.15.16-2.902 2.901a4.825 4.825 0 01-6.99-6.649l.166-.174.387-.387a1 1 0 011.497 1.32l-.083.095-.386.386a2.825 2.825 0 003.853 4.127l.141-.132 2.902-2.901a2 2 0 00.117-2.702l-.117-.127-.97-.97a1 1 0 011.219-1.566l.101.069zm5.117-4.167a4.825 4.825 0 01.166 6.65l-.166.174-.386.386a1 1 0 01-1.498-1.32l.084-.094.386-.387a2.825 2.825 0 00-3.854-4.127l-.14.132-2.902 2.902a2 2 0 00-.117 2.701l.117.127.97.97a1 1 0 01-1.32 1.497l-.095-.083-.97-.97a4 4 0 01-.15-5.497l.15-.16 2.902-2.9a4.825 4.825 0 016.823 0z"/></svg>