<svg xmlns="http://www.w3.org/2000/svg" viewBox="0 0 24 24"><path fill-rule="evenodd" d="M9.172 10.586a1 1 0 01.083 1.32L9.172 12 7.05 14.12a2 2 0 002.702 2.945l.127-.116L12 14.828a1 1 0 011.498 1.32l-.084.094-2.12 2.122a4 4 0 01-5.809-5.498l.151-.159 2.121-2.121a1 1 0 011.415 0zm6.364-2.122a1 1 0 01.083 1.32l-.083.095-5.657 5.656a1 1 0 01-1.498-1.32l.084-.094 5.656-5.657a1 1 0 011.415 0zm2.828-2.828a4 4 0 01.15 5.498l-.15.159-2.121 2.121a1 1 0 01-1.498-1.32L14.83 12l2.12-2.121a2 2 0 00-2.7-2.946l-.128.117-2.12 2.121a1 1 0 01-1.498-1.32l.083-.094 2.121-2.121a4 4 0 015.657 0z"/></svg>