<svg xmlns="http://www.w3.org/2000/svg" viewBox="0 0 24 24"><path fill-rule="evenodd" d="M6.929 14.649a1 1 0 01-.56 1.299C4.812 16.568 4 17.358 4 18c0 1.435 3.52 3 8 3s8-1.565 8-3c0-.638-.801-1.423-2.342-2.041a1 1 0 01.745-1.856C20.618 14.992 22 16.345 22 18c0 2.983-4.538 5-10 5S2 20.983 2 18c0-1.663 1.396-3.022 3.63-3.91a1 1 0 011.299.559zM12 2c3.49 0 6 2.868 6 6.5 0 2.294-1.744 5.608-5.207 10.11a1 1 0 01-1.586 0C7.744 14.108 6 10.794 6 8.5 6 4.868 8.51 2 12 2zm0 2C9.678 4 8 5.918 8 8.5c0 1.556 1.32 4.203 3.982 7.815l.018.023.271-.37c2.409-3.32 3.645-5.793 3.725-7.314L16 8.5C16 5.918 14.322 4 12 4zm0 1a3 3 0 110 6 3 3 0 010-6zm0 2a1 1 0 100 2 1 1 0 000-2z"/></svg>