<svg xmlns="http://www.w3.org/2000/svg" viewBox="0 0 24 24"><path fill-rule="evenodd" d="M3.293 2.293l.02-.02a1.012 1.012 0 01.447-.245c.004 0 .007 0 .01-.002l.04-.009a.991.991 0 01.07-.01h.005a.965.965 0 01.555.095c.18.09.536.236 1.033.385 2 .6 4.118.6 6.08-.381l.318-.15a8.38 8.38 0 011.687-.541c1.768-.371 3.622-.233 5.408.218.479.12.871.243 1.158.345l.251.095A1 1 0 0121 3v10a1 1 0 01-1.447.894 5.796 5.796 0 00-.68-.27l-.346-.11c-2-.6-4.118-.6-6.08.38l-.318.15a8.38 8.38 0 01-1.687.541c-1.768.371-3.622.233-5.408-.218A16.334 16.334 0 015 14.358L5 22a1 1 0 01-1.993.117L3 22V3a1.007 1.007 0 01.274-.688l.019-.02zm15.183 1.279c-1.516-.383-3.08-.5-4.507-.2a6.271 6.271 0 00-1.522.522c-2.482 1.242-5.104 1.242-7.55.508l.103.03v7.85l.069.022.455.124c1.516.383 3.08.5 4.507.2a6.271 6.271 0 001.522-.522c2.482-1.242 5.104-1.242 7.55-.508l-.103-.03V3.716l-.29-.083z"/></svg>