<svg xmlns="http://www.w3.org/2000/svg" viewBox="0 0 24 24"><path fill-rule="evenodd" d="M20 1a1 1 0 01.117 1.993L20 3l-2-.001V4a5 5 0 013.349 1.282l.192.182a5 5 0 011.464 3.534V17a1.998 1.998 0 01-2 2H17v3a1 1 0 01-.883.993L16 23h-4a1 1 0 01-.993-.883L11 22v-3H3.005a2.026 2.026 0 01-.492-.061l-.046-.012c-.04-.011-.08-.024-.12-.037l-.038-.014a1.969 1.969 0 01-.718-.461l.117.108a2.013 2.013 0 01-.579-.827l-.014-.04a1.737 1.737 0 01-.037-.118l-.012-.046a1.687 1.687 0 01-.024-.108l-.01-.055A1.801 1.801 0 011.005 17l.006.163A2.026 2.026 0 011.005 17V9.998a5.997 5.997 0 012.613-4.951l.232-.151C4.79 4.315 5.88 4 7.003 4H16V2a1 1 0 01.884-.993L17 1h3zm-5 18h-2v2h2v-2zM7.007 6a4 4 0 00-4.002 3.998V17h7.999V9.998c0-.985-.362-1.932-1.015-2.662l-.155-.165A3.998 3.998 0 007.007 6zM16 6h-4.522a5.997 5.997 0 011.527 3.998V17h8V8.998A3 3 0 0018.007 6H18v2a1 1 0 01-.883.993L17 9a1 1 0 01-.993-.883L16 8V6zm-7.5 7a1 1 0 01.117 1.993L8.5 15h-3a1 1 0 01-.116-1.993L5.5 13h3z"/></svg>