<svg xmlns="http://www.w3.org/2000/svg" viewBox="0 0 24 24"><path fill-rule="evenodd" d="M12.016 1a8.5 8.5 0 018.502 8.498V22a1 1 0 01-1.993.117L18.518 22v-1H5.514v1a1 1 0 01-.883.993L4.514 23a1 1 0 01-.993-.883L3.514 22V9.5A8.5 8.5 0 0112.016 1zm0 2a6.5 6.5 0 00-6.502 6.5V19h13.004V9.498c0-1.62-.608-3.18-1.697-4.375l-.21-.22A6.5 6.5 0 0012.016 3zm4.485 7a1 1 0 011 1v6a1 1 0 01-1 1h-9a1 1 0 01-1-1v-6a1 1 0 011-1zm-1 2h-7v4h7v-4zm-.5-5a1 1 0 01.117 1.993L15 9h-6a1 1 0 01-.117-1.993L9.001 7h6z"/></svg>