<svg xmlns="http://www.w3.org/2000/svg" viewBox="0 0 24 24"><path fill-rule="evenodd" d="M17 2a3 3 0 013 3v14a3 3 0 01-3 3H7a3 3 0 01-3-3H3a1 1 0 01-.117-1.993L3 17h1v-2H3a1 1 0 01-.117-1.993L3 13h1v-2H3a1 1 0 01-.117-1.993L3 9h1V7H3a1 1 0 01-.117-1.993L3 5h1a3 3 0 013-3zm0 2H7a1 1 0 00-1 1 1 1 0 01.117 1.993L6 7v2a1 1 0 01.117 1.993L6 11v2a1 1 0 01.117 1.993L6 15v2a1 1 0 01.117 1.993L6 19a1 1 0 001 1h10a1 1 0 001-1V5a1 1 0 00-1-1zm-5 11a1 1 0 01.117 1.993L12 17H9a1 1 0 01-.117-1.993L9 15h3zm3-3a1 1 0 01.117 1.993L15 14H9a1 1 0 01-.117-1.993L9 12h6zm0-3a1 1 0 01.117 1.993L15 11H9a1 1 0 01-.117-1.993L9 9h6zm0-3a1 1 0 01.117 1.993L15 8H9a1 1 0 01-.117-1.993L9 6h6z"/></svg>