<svg xmlns="http://www.w3.org/2000/svg" viewBox="0 0 24 24"><path fill-rule="evenodd" d="M13 19a1 1 0 011 1 2 2 0 11-4 0 1 1 0 011-1zm6.364-13.364a1 1 0 01.078 1.327l-.078.087L6.05 20.364a1 1 0 01-1.492-1.327l.078-.087L17.95 5.636a1 1 0 011.414 0zM17 11a1 1 0 01.993.883L18 12v4h1a1 1 0 01.117 1.993L19 18h-7a1 1 0 01-.117-1.993L12 16h4v-4a1 1 0 011-1zm-5-8a2 2 0 011.988 2.217c.314.075.611.17.892.287a1 1 0 11-.764 1.848C13.556 7.121 12.852 7 12 7c-2.7 0-3.927 1.148-3.997 3.759L8 11v2a1 1 0 01-1.993.117L6 13v-2c0-3.16 1.4-5.15 4.013-5.782A2 2 0 0112 3z"/></svg>