<svg xmlns="http://www.w3.org/2000/svg" viewBox="0 0 24 24"><path fill-rule="evenodd" d="M21 20a1 1 0 01.117 1.993L21 22H5a1 1 0 01-.117-1.993L5 20h16zM15.619 1.63c.851-.84 2.22-.84 3.07 0l1.681 1.68c.84.851.84 2.22-.006 3.077l-1.67 1.666c-.037.036-.076.07-.116.099l-9.438 9.43c-.5.508-1.154.837-1.853.936l-3.139.47a1 1 0 01-1.137-1.136l.468-3.123a3.292 3.292 0 01.91-1.865l9.561-9.56zm-.964 3.796l-8.841 8.842a1.296 1.296 0 00-.354.741l-.271 1.801 1.81-.27c.227-.033.44-.127.62-.273l.103-.094 8.84-8.839-1.907-1.908zm2.63-2.372a.185.185 0 00-.256-.006l-.96.961 1.927 1.914.95-.947A.189.189 0 0019 4.818l-.016-.053-.032-.045z"/></svg>