<svg xmlns="http://www.w3.org/2000/svg" viewBox="0 0 24 24"><path fill-rule="evenodd" d="M6.932 3c-.855 0-1.688.374-2.385 1.034C3.507 5.028 3 6.285 3 7.72c0 2.707 1.853 5.943 4.784 8.863 2.935 2.946 6.202 4.829 8.898 4.829 1.455 0 2.716-.54 3.686-1.623.635-.71 1.007-1.54 1.007-2.383 0-.807-.341-1.534-1.023-2.009l-2.693-1.906c-.55-.4-1.096-.62-1.654-.62l-.187.008c-.613.053-1.135.371-1.68.916l-.361.354-.089-.062c-.436-.313-1.118-.907-1.813-1.595l-.172-.175c-.62-.638-1.136-1.235-1.423-1.64l-.053-.078.363-.373c.59-.59.913-1.164.913-1.866 0-.547-.211-1.061-.612-1.643L8.99 4.042A2.502 2.502 0 006.932 3zm0 2c.192 0 .327.065.439.216l1.881 2.648c.184.266.251.43.251.496 0 .057-.058.168-.248.37l-.721.743a1.426 1.426 0 00-.413 1.03c0 .29.078.559.198.8.338.643 1.13 1.58 2.142 2.603 1.007.997 1.968 1.806 2.586 2.137.268.134.539.21.833.21.38 0 .746-.127 1.041-.422l.626-.617c.266-.265.403-.343.458-.343.068 0 .196.048.387.175l2.811 1.988c.123.086.172.19.172.372 0 .306-.169.682-.498 1.05-.581.649-1.297.956-2.195.956-2.049 0-4.885-1.635-7.483-4.243C6.605 12.585 5 9.783 5 7.72c0-.903.296-1.634.925-2.237C6.267 5.16 6.622 5 6.932 5z"/></svg>