<svg xmlns="http://www.w3.org/2000/svg" viewBox="0 0 24 24"><path fill-rule="evenodd" d="M14.233 2.138a1 1 0 011.57-.468l.086.077 6.364 6.364a1 1 0 01-.39 1.656l-1.898.631-3.606 3.607.054.175c.58 2.027-.272 4.194-2.411 6.42l-.234.239a1 1 0 01-1.414 0l-3.89-3.89-2.12 2.122a1 1 0 01-1.493-1.327l.078-.087 2.121-2.121-3.889-3.89a1 1 0 01-.083-1.32l.083-.094c2.31-2.31 4.56-3.246 6.659-2.645l.175.054L13.6 4.036zm1.386 2.166l-.195.588a1 1 0 01-.165.304l-.077.086-4.243 4.243a1 1 0 01-1.154.187c-1.234-.616-2.662-.282-4.369 1.158l-.11.093 7.73 7.73.094-.11c1.382-1.637 1.746-3.02 1.227-4.219l-.07-.149a1 1 0 01.188-1.154l4.243-4.243a1 1 0 01.39-.242l.587-.196-4.076-4.076z"/></svg>