<svg xmlns="http://www.w3.org/2000/svg" viewBox="0 0 24 24"><path fill-rule="evenodd" d="M19.117 6c.79 0 1.383.407 1.383 1.154 0 .611-.444 1.07-1.07 1.103-2.239.102-3.901 1.579-4.379 3.82.478-.747 1.219-1.104 2.157-1.104 1.86 0 3.226 1.358 3.226 3.429 0 2.19-1.662 3.598-3.67 3.598-2.387 0-4.264-1.901-4.264-4.82C12.5 9.09 15.611 6 19.117 6zm-9 0c.79 0 1.383.407 1.383 1.154 0 .611-.444 1.07-1.053 1.103-2.256.12-3.918 1.579-4.396 3.82.478-.73 1.219-1.104 2.157-1.104 1.86 0 3.226 1.358 3.226 3.429 0 2.19-1.646 3.598-3.654 3.598-2.403 0-4.28-1.901-4.28-4.82C3.5 9.09 6.611 6 10.117 6z"/></svg>