<svg xmlns="http://www.w3.org/2000/svg" viewBox="0 0 24 24"><path fill-rule="evenodd" d="M7.237 6C9.623 6 11.5 7.901 11.5 10.82c0 4.09-3.111 7.18-6.617 7.18-.79 0-1.383-.407-1.383-1.154 0-.611.444-1.07 1.07-1.103 2.239-.102 3.901-1.579 4.379-3.82-.478.747-1.219 1.104-2.157 1.104-1.86 0-3.226-1.358-3.226-3.429C3.566 7.408 5.228 6 7.236 6zm8.983 0c2.403 0 4.28 1.901 4.28 4.82 0 4.09-3.111 7.18-6.617 7.18-.79 0-1.383-.407-1.383-1.154 0-.611.444-1.07 1.053-1.103 2.256-.12 3.918-1.579 4.396-3.82-.478.73-1.219 1.104-2.157 1.104-1.86 0-3.226-1.358-3.226-3.429C12.566 7.408 14.212 6 16.22 6z"/></svg>