<svg width="99" height="99" viewBox="0 0 99 99" fill="none" xmlns="http://www.w3.org/2000/svg">
<circle cx="49.5" cy="49.5" r="49.5" fill="white"/>
<path d="M37.0934 68.2C33.96 68.2 31.5934 67.0667 29.9934 64.8C28.46 62.4667 27.6934 59.2333 27.6934 55.1C27.6934 50.3667 28.86 46.2 31.1934 42.6C33.5267 39 37.0934 36.0333 41.8934 33.7L45.0934 40.1C42.0934 41.6333 39.8267 43.4 38.2934 45.4C36.8267 47.3333 36.0934 49.8 36.0934 52.8C36.2934 52.7333 36.6267 52.7 37.0934 52.7C39.2267 52.7 41.0267 53.3667 42.4934 54.7C44.0267 55.9667 44.7934 57.7333 44.7934 60C44.7934 62.5333 44.06 64.5333 42.5934 66C41.1267 67.4667 39.2934 68.2 37.0934 68.2ZM60.6934 68.2C57.56 68.2 55.1934 67.0667 53.5934 64.8C52.06 62.4667 51.2934 59.2333 51.2934 55.1C51.2934 50.3667 52.46 46.2 54.7934 42.6C57.1267 39 60.6934 36.0333 65.4934 33.7L68.6934 40.1C65.6934 41.6333 63.4267 43.4 61.8934 45.4C60.4267 47.3333 59.6934 49.8 59.6934 52.8C59.8934 52.7333 60.2267 52.7 60.6934 52.7C62.8267 52.7 64.6267 53.3667 66.0934 54.7C67.6267 55.9667 68.3934 57.7333 68.3934 60C68.3934 62.5333 67.66 64.5333 66.1934 66C64.7267 67.4667 62.8934 68.2 60.6934 68.2Z" fill="#625089"/>
</svg>
