<svg xmlns="http://www.w3.org/2000/svg" viewBox="0 0 24 24"><path fill-rule="evenodd" d="M17 9a3 3 0 012.995 2.824L20 12v7a3 3 0 01-2.824 2.995L17 22H7a3 3 0 01-2.995-2.824L4 19v-7a3 3 0 013-3 1 1 0 01.117 1.993L7 11a1 1 0 00-.993.883L6 12v7a1 1 0 00.883.993L7 20h10a1 1 0 00.993-.883L18 19v-7a1 1 0 00-.883-.993L17 11a1 1 0 010-2zm-5-7l.075.003.126.017.111.03.111.044.098.052.092.064c.037.029.066.055.094.083l3 3a1 1 0 01-1.32 1.497l-.094-.083L13 5.414V15a1 1 0 01-1.993.117L11 15V5.415L9.707 6.707a1 1 0 01-1.497-1.32l.083-.094 3-3 .058-.054.094-.071.07-.043.114-.054.105-.035.118-.025.058-.007L12 2z"/></svg>