<svg xmlns="http://www.w3.org/2000/svg" viewBox="0 0 24 24"><path fill-rule="evenodd" d="M7.5 18a2.5 2.5 0 110 5 2.5 2.5 0 010-5zm11 0a2.5 2.5 0 110 5 2.5 2.5 0 010-5zm-11 2a.5.5 0 100 1 .5.5 0 000-1zm11 0a.5.5 0 100 1 .5.5 0 000-1zM2 1a1 1 0 011 1c0 2.044.828 2.94 2.793 2.997L6 5h15a1 1 0 01.97 1.242l-.034.11-3 8a1 1 0 01-.812.64L18 15H7.651l.183 1H19a1 1 0 01.993.883L20 17a1 1 0 01-.883.993L19 18H7a1 1 0 01-.956-.705l-.028-.116L4.122 6.755c-1.958-.57-3.047-2.121-3.118-4.504L1 2a1 1 0 011-1zm5.288 12h10.018l2.25-6H6.197l1.091 6z"/></svg>