<svg xmlns="http://www.w3.org/2000/svg" viewBox="0 0 24 24"><path fill-rule="evenodd" d="M16 15c1.306 0 2.418.835 2.83 2H21a1 1 0 01.117 1.993L21 19h-2.171a3.001 3.001 0 01-5.658 0H3a1 1 0 01-.117-1.993L3 17h10.17A3.001 3.001 0 0116 15zm0 2a1 1 0 00-.993.883L15 18a1 1 0 001.993.117L17 18a1 1 0 00-1-1zM8 9c1.306 0 2.418.835 2.83 2H21a1 1 0 01.117 1.993L21 13H10.829a3.001 3.001 0 01-5.658 0H3a1 1 0 01-.117-1.993L3 11h2.17A3.001 3.001 0 018 9zm0 2a1 1 0 00-.993.883L7 12a1 1 0 001.993.117L9 12a1 1 0 00-1-1zm8-8c1.306 0 2.417.834 2.829 2H21a1 1 0 01.117 1.993L21 7h-2.17a3.001 3.001 0 01-5.659 0H3a1 1 0 01-.117-1.993L3 5h10.17A3.001 3.001 0 0116 3zm0 2a1 1 0 00-.993.883L15 6a1 1 0 001.993.117L17 6a1 1 0 00-1-1z"/></svg>