<svg xmlns="http://www.w3.org/2000/svg" viewBox="0 0 24 24"><path fill-rule="evenodd" d="M12 2a1 1 0 01.993.883L13 3v10.171a3.001 3.001 0 010 5.658V21a1 1 0 01-1.993.117L11 21v-2.17a3.001 3.001 0 010-5.66V3a1 1 0 011-1zM6 2a1 1 0 01.993.883L7 3v2.17a3.001 3.001 0 010 5.659V21a1 1 0 01-1.993.117L5 21V10.83A3.001 3.001 0 015 5.17V3a1 1 0 011-1zm12 0a1 1 0 01.993.883L19 3v2.171a3.001 3.001 0 010 5.658V21a1 1 0 01-1.993.117L17 21V10.83a3.001 3.001 0 010-5.66V3a1 1 0 011-1zm-6 13a1 1 0 00-.117 1.993L12 17a1 1 0 00.117-1.993L12 15zm6-8a1 1 0 00-.117 1.993L18 9a1 1 0 00.117-1.993L18 7zM6.008 7h-.017l-.108.007a1 1 0 000 1.986L6 9a1 1 0 00.117-1.993L6.008 7z"/></svg>