<svg xmlns="http://www.w3.org/2000/svg" xmlns:xlink="http://www.w3.org/1999/xlink" viewBox="0 0 24 24"><defs><path id="a" d="M13.27 9.74l1.64.75 2.443-.715V8.11C17.269 5.274 14.909 3 12 3 9.102 3 6.75 5.258 6.645 8.078v7.61c0 .689-.569 1.248-1.27 1.248a1.257 1.257 0 01-1.267-1.248v-3.225H0v3.267C0 18.64 2.401 21 5.365 21c2.937 0 5.317-2.32 5.36-5.194l.005-7.516c0-.689.569-1.247 1.27-1.247.701 0 1.27.558 1.27 1.247v1.45zm6.625 2.723v3.375c0 .689-.569 1.247-1.27 1.247a1.26 1.26 0 01-1.272-1.247v-3.311l-2.442.717-1.64-.75v3.283C13.294 18.664 15.688 21 18.635 21 21.599 21 24 18.64 24 15.73v-3.267h-4.105z"/></defs><use fill-rule="evenodd" xlink:href="#a"/></svg>