<svg xmlns="http://www.w3.org/2000/svg" viewBox="0 0 24 24"><path fill-rule="evenodd" d="M4 15a1 1 0 01-1-1V5a1 1 0 011-1h10c5.964 0 8.723 3.548 7.994 10.11l-.02.115A1 1 0 0121 15h-3.808l.039.266C17.788 19.29 16.771 21 14 21c-1.623 0-2.394-.784-3.074-2.503l-.428-1.146a10.18 10.18 0 00-.392-.904c-.472-.943-1.083-1.39-1.933-1.442L8 15H4zm10-9H9v7.11l.115.027c1.193.308 2.138 1.132 2.78 2.416.124.25.239.505.353.787l.214.554.252.68C13.155 18.752 13.38 19 14 19c1.485 0 1.822-.789 1.02-4.804l-.017-.115A1 1 0 0116 13h4.084l.015-.27C20.312 8.102 18.355 6 14 6zM7 6H5v7h2V6z"/></svg>