<svg xmlns="http://www.w3.org/2000/svg" viewBox="0 0 24 24"><path fill-rule="evenodd" d="M4 20a1 1 0 01-1-1v-9a1 1 0 011-1h4l.173-.005c.85-.052 1.461-.5 1.933-1.442.134-.27.258-.557.392-.904l.428-1.146C11.606 3.784 12.377 3 14 3c2.772 0 3.788 1.71 3.231 5.734L17.192 9H21a1 1 0 01.974.775l.02.115C22.724 16.452 19.964 20 14 20zm3-9H5v7h2v-7zm7-6c-.62 0-.845.25-1.286 1.425l-.252.681-.214.554c-.114.282-.229.537-.354.787-.641 1.284-1.586 2.108-2.779 2.416L9 10.89V18h5c4.266 0 6.231-2.018 6.11-6.45l-.011-.28-.015-.27H16a1 1 0 01-.997-1.08l.016-.116C15.822 5.789 15.485 5 14 5z"/></svg>