<svg xmlns="http://www.w3.org/2000/svg" viewBox="0 0 24 24"><path fill-rule="evenodd" d="M10.021 20.157c-.456.27-.924.307-1.21-.029-.302-.356-.389-2.292 2.612-2.87 0 0-.474 2.346-1.402 2.899m-.19-15.26c.484-1.931.118-3.701-1.838-3.881-1.686-.155-3.295.858-3.78 1.386-.349.381-.232.838.082 1.393.246.433.576.715.66.766.104.066.236.067.287.008.564-.649 1.59-1.138 1.947-.837.313.264.194.76.07 1.236 0 0-1.097 4.224-1.543 5.984-.328 1.297-.006 2.477.922 3.041.69.434 1.714.399 2.524.293 1.76-.218 2.79-.976 2.957-1.107l-.326 1.852s-1.984.183-3.61 1.18c-2.136 1.309-3 4.283-1.632 5.817 1.369 1.535 3.758.953 4.73.283.937-.644 2.159-2 2.712-5.076 3.223.168 4.061 1.875 5.435 1.937.986.044 1.681-.929 1.558-1.963a.265.265 0 00-.195-.217c-.192-.054-.388-.008-.955-.267-.458-.209-2.577-1.255-5.496-1.6l2.114-12.307c.095-.551.09-.996-.08-1.278-.249-.414-.795-.525-1.42-.47-.49.044-.88.23-.96.286a.294.294 0 00-.13.264c.021.232.197.413.052 1.306-.031.188-.722 4.126-1.307 7.46-1.544.948-3.6 1.397-4.023.828-.202-.284-.157-.815.038-1.613.042-.176.952-3.694 1.206-4.705"/></svg>