<svg width="32" height="32" viewBox="0 0 32 32" fill="none" xmlns="http://www.w3.org/2000/svg">
<path d="M15.9713 30.8937C24.2398 30.8937 30.9426 24.2017 30.9426 15.9468C30.9426 7.69192 24.2398 1 15.9713 1C7.70291 1 1 7.69192 1 15.9468C1 24.2017 7.70291 30.8937 15.9713 30.8937Z" stroke="#625089" stroke-miterlimit="10" stroke-linecap="round"/>
<path d="M15.9712 18.3929C17.3243 18.3929 18.4212 17.2978 18.4212 15.9469C18.4212 14.5961 17.3243 13.501 15.9712 13.501C14.6181 13.501 13.5212 14.5961 13.5212 15.9469C13.5212 17.2978 14.6181 18.3929 15.9712 18.3929Z" stroke="#82BC46" stroke-miterlimit="10" stroke-linecap="round"/>
<path d="M8.52855 18.3929C9.88163 18.3929 10.9785 17.2978 10.9785 15.9469C10.9785 14.5961 9.88163 13.501 8.52855 13.501C7.17547 13.501 6.07861 14.5961 6.07861 15.9469C6.07861 17.2978 7.17547 18.3929 8.52855 18.3929Z" stroke="#82BC46" stroke-miterlimit="10" stroke-linecap="round"/>
<path d="M23.4141 18.3929C24.7672 18.3929 25.8641 17.2978 25.8641 15.9469C25.8641 14.5961 24.7672 13.501 23.4141 13.501C22.061 13.501 20.9641 14.5961 20.9641 15.9469C20.9641 17.2978 22.061 18.3929 23.4141 18.3929Z" stroke="#82BC46" stroke-miterlimit="10" stroke-linecap="round"/>
</svg>
